<svg xmlns="http://www.w3.org/2000/svg" viewBox="0 0 499.5 52.8"><defs><style>.cls-1{fill:#493bf7;}</style></defs><g id="Layer_2" data-name="Layer 2"><g id="Layer_1-2" data-name="Layer 1"><path class="cls-1" d="M43.1,51.8H36c-.8-2-1.5-4-2.1-5.9S32.5,42,31.8,40H10.9L6.7,51.8H0c1.8-4.9,3.4-9.4,5-13.6s3.1-8.1,4.6-11.8,3-7.3,4.4-10.7,3-6.8,4.6-10.1h5.9c1.6,3.3,3.1,6.7,4.6,10.1s3,7,4.4,10.7,3,7.7,4.6,11.8,3.3,8.7,5,13.6ZM12.8,34.7H30c-1.4-3.9-2.8-7.6-4.2-11.2S23,16.4,21.4,13.1h0c-1.6,3.3-3,6.8-4.4,10.4s-2.8,7.3-4.2,11.2ZM81.5,51.8H76.1c-1.3-3.2-2.6-6.8-4-11S69.4,32.4,68.3,28h0c-1.2,4.4-2.4,8.7-3.8,12.8s-2.7,7.8-3.9,11H55.2c-2-4.6-4-9.8-6-15.7s-3.8-12.2-5.5-19h6.6c.4,2.1,1,4.3,1.6,6.8s1.3,4.9,2,7.3,1.4,4.8,2.2,7.1,1.5,4.2,2.1,5.9h0c.8-2.1,1.5-4.3,2.2-6.6s1.4-4.7,2.1-7.1,1.3-4.7,1.9-7,1.1-4.4,1.6-6.4h5.1c.4,2,.9,4.1,1.5,6.4s1.2,4.6,1.9,7,1.4,4.7,2.1,7.1,1.5,4.5,2.2,6.6h0c.7-1.7,1.4-3.7,2.1-5.9s1.4-4.6,2.2-7.1,1.4-4.9,2-7.3,1.1-4.7,1.6-6.8h6.4c-1.7,6.8-3.6,13.1-5.5,19-2.1,5.9-4.1,11.1-6.1,15.7ZM97.6,34.6h0a21.65,21.65,0,0,1,1.3-8,17.78,17.78,0,0,1,3.5-5.7,15.72,15.72,0,0,1,5.1-3.4,15.07,15.07,0,0,1,5.9-1.1h0c4.7,0,8.2,1.5,10.7,4.4s3.7,7.3,3.7,13.3h0v1a4.87,4.87,0,0,1-.1,1.2H104c.3,3.6,1.3,6.3,3.1,8.2s4.7,2.8,8.5,2.8h0a21.47,21.47,0,0,0,5.5-.6,19.41,19.41,0,0,0,3.4-1.1h0l.9,5.2a17.8,17.8,0,0,1-4,1.2,30.57,30.57,0,0,1-6.4.7h0a20.5,20.5,0,0,1-7.8-1.4,14.25,14.25,0,0,1-5.4-3.8,15.92,15.92,0,0,1-3.2-5.7A23.65,23.65,0,0,1,97.6,34.6Zm6.6-3.4h17.2a10.91,10.91,0,0,0-2.1-6.9,7.15,7.15,0,0,0-6-2.7h0a9.21,9.21,0,0,0-3.8.8,10.11,10.11,0,0,0-2.8,2.2,10.52,10.52,0,0,0-1.8,3.1,19.72,19.72,0,0,0-.7,3.5Zm40.7,16.2h0a11.66,11.66,0,0,0,5.6-1,3.39,3.39,0,0,0,1.8-3.2h0a4.28,4.28,0,0,0-1.8-3.6,28.45,28.45,0,0,0-5.9-3h0c-1.3-.5-2.6-1.1-3.8-1.6a14.49,14.49,0,0,1-3.2-2,9,9,0,0,1-2.1-2.7,9.35,9.35,0,0,1-.8-3.9h0a8.7,8.7,0,0,1,3.4-7.3q3.45-2.7,9.3-2.7h0a28.25,28.25,0,0,1,2.9.2,23.58,23.58,0,0,1,2.8.4c.8.2,1.6.3,2.2.5a13.08,13.08,0,0,1,1.5.5h0l-1.1,5.3a15.1,15.1,0,0,0-3.1-1.1,18.78,18.78,0,0,0-5.1-.6h0a9.33,9.33,0,0,0-4.5,1,3.41,3.41,0,0,0-1.9,3.2h0a4.21,4.21,0,0,0,.4,2,4.84,4.84,0,0,0,1.3,1.6,9.13,9.13,0,0,0,2.2,1.3c.9.4,2,.8,3.2,1.3h0c1.6.6,3.1,1.2,4.4,1.8a13.35,13.35,0,0,1,3.3,2.1,8.64,8.64,0,0,1,2.1,2.9,10.24,10.24,0,0,1,.7,4.2h0a8.37,8.37,0,0,1-3.6,7.3c-2.4,1.7-5.8,2.5-10.2,2.5h0a23,23,0,0,1-7.2-.8,25.9,25.9,0,0,1-3.5-1.2h0l1.1-5.3c.7.3,1.9.7,3.4,1.2A24.62,24.62,0,0,0,144.9,47.4Zm52.2-12.9h0a22.26,22.26,0,0,1-1.2,7.5,17.75,17.75,0,0,1-3.4,5.8,15,15,0,0,1-5.2,3.7,15.73,15.73,0,0,1-6.5,1.3h0a15.73,15.73,0,0,1-6.5-1.3,15.94,15.94,0,0,1-5.2-3.7,17.43,17.43,0,0,1-3.4-5.8,21.86,21.86,0,0,1-1.2-7.5h0a21.67,21.67,0,0,1,1.2-7.4,16.77,16.77,0,0,1,3.4-5.8,15,15,0,0,1,5.2-3.7,15.73,15.73,0,0,1,6.5-1.3h0a15.41,15.41,0,0,1,6.5,1.3,15.94,15.94,0,0,1,5.2,3.7,17.43,17.43,0,0,1,3.4,5.8A21.67,21.67,0,0,1,197.1,34.5Zm-6.4,0h0c0-3.9-.9-7-2.6-9.3a8.39,8.39,0,0,0-7.2-3.4h0a8.64,8.64,0,0,0-7.2,3.4c-1.7,2.3-2.6,5.4-2.6,9.3h0c0,3.9.9,7,2.6,9.3a8.64,8.64,0,0,0,7.2,3.4h0a8.64,8.64,0,0,0,7.2-3.4C189.8,41.5,190.7,38.4,190.7,34.5Zm15.2,17.3V18.1c1.4-.4,3.3-.7,5.6-1.1a47.86,47.86,0,0,1,8.1-.6h0a15.28,15.28,0,0,1,5.6.9,10.29,10.29,0,0,1,3.8,2.6h0q.45-.3,1.5-.9a19.66,19.66,0,0,1,2.5-1.2,25.78,25.78,0,0,1,3.3-1,16.11,16.11,0,0,1,3.9-.4h0a15.09,15.09,0,0,1,6.5,1.2,10,10,0,0,1,4,3.3,11.55,11.55,0,0,1,1.9,5.1,42.62,42.62,0,0,1,.5,6.4h0V51.9h-6.2V33.8a40,40,0,0,0-.3-5.3,11.56,11.56,0,0,0-1.1-3.7,5.41,5.41,0,0,0-2.3-2.2,7.88,7.88,0,0,0-3.7-.7h0a15.36,15.36,0,0,0-5.2.8,13,13,0,0,0-2.8,1.5h0a21.24,21.24,0,0,1,.8,3.8,30,30,0,0,1,.3,4.3h0V51.8h-6.3V33.7a40,40,0,0,0-.3-5.3,9.49,9.49,0,0,0-1.2-3.7,5.41,5.41,0,0,0-2.3-2.2,8,8,0,0,0-3.6-.7h0a14.08,14.08,0,0,0-2,.1c-.7.1-1.4.1-2,.2a12.37,12.37,0,0,1-1.8.2,7.47,7.47,0,0,0-1.1.2h0V51.8Zm55.4-17.2h0a21.65,21.65,0,0,1,1.3-8,17.78,17.78,0,0,1,3.5-5.7,15.72,15.72,0,0,1,5.1-3.4,15.07,15.07,0,0,1,5.9-1.1h0c4.7,0,8.2,1.5,10.7,4.4s3.7,7.3,3.7,13.3h0v1a4.87,4.87,0,0,1-.1,1.2H267.7c.3,3.6,1.3,6.3,3.1,8.2s4.7,2.8,8.5,2.8h0a21.47,21.47,0,0,0,5.5-.6,19.41,19.41,0,0,0,3.4-1.1h0l.9,5.2a17.8,17.8,0,0,1-4,1.2,30.57,30.57,0,0,1-6.4.7h0a20.5,20.5,0,0,1-7.8-1.4,14.25,14.25,0,0,1-5.4-3.8,15.92,15.92,0,0,1-3.2-5.7A27.22,27.22,0,0,1,261.3,34.6Zm6.6-3.4h17.2a10.91,10.91,0,0,0-2.1-6.9,7.15,7.15,0,0,0-6-2.7h0a9.21,9.21,0,0,0-3.8.8,8.55,8.55,0,0,0-2.8,2.2,10.52,10.52,0,0,0-1.8,3.1c-.3,1.1-.5,2.3-.7,3.5Zm60.7-26h0c6.5,0,11.5,1.2,15,3.7s5.2,6.1,5.2,11h0a15.54,15.54,0,0,1-1.4,6.8,11.34,11.34,0,0,1-4.1,4.6,19.8,19.8,0,0,1-6.6,2.6,46.33,46.33,0,0,1-8.8.8h-5.1V51.8h-6.5V6.3a46.69,46.69,0,0,1,6.1-.9C324.7,5.2,326.7,5.2,328.6,5.2Zm.5,5.6h0c-2.8,0-4.9.1-6.3.2h0V29.1h4.9a37,37,0,0,0,6-.4,13.22,13.22,0,0,0,4.5-1.5,6.86,6.86,0,0,0,2.8-2.8,9,9,0,0,0,1-4.6h0a8.43,8.43,0,0,0-1-4.4,7.52,7.52,0,0,0-2.8-2.8,10.48,10.48,0,0,0-4.1-1.4A39,39,0,0,0,329.1,10.8Zm38.6,36.5-.9,5.2c-3.8-.1-6.5-.9-8.1-2.5s-2.4-4-2.4-7.3h0V1.1L362.5,0V41.7a8.52,8.52,0,0,0,.3,2.5,3.4,3.4,0,0,0,2.5,2.5,7.66,7.66,0,0,0,2.4.6Zm18.7.1h0c1.5,0,2.8,0,3.9-.1a17,17,0,0,0,2.8-.4h0V36.6a10.61,10.61,0,0,0-2.2-.6,19.44,19.44,0,0,0-3.6-.2h0c-.9,0-1.9.1-3,.2a9.61,9.61,0,0,0-2.9.8,5.48,5.48,0,0,0-2.2,1.8,4.37,4.37,0,0,0-.9,2.9h0c0,2.2.7,3.8,2.1,4.6A13.31,13.31,0,0,0,386.4,47.4Zm-.5-31.1h0a16.66,16.66,0,0,1,6.3,1,9.22,9.22,0,0,1,4.1,2.7,10.58,10.58,0,0,1,2.2,4.2,22.09,22.09,0,0,1,.7,5.4h0V51.3c-.5.1-1.3.2-2.2.4a27.92,27.92,0,0,1-3.2.4c-1.2.1-2.5.2-3.9.4s-2.8.2-4.2.2h0a22.31,22.31,0,0,1-5.4-.6,10.81,10.81,0,0,1-4.2-1.9,9.32,9.32,0,0,1-2.8-3.4,11.32,11.32,0,0,1-1-5.1h0a9.37,9.37,0,0,1,1.2-4.9,8.46,8.46,0,0,1,3.2-3.3,15.42,15.42,0,0,1,4.7-1.9A25.3,25.3,0,0,1,387,31h0a12.1,12.1,0,0,1,1.9.1c.7.1,1.3.1,1.9.2s1.1.2,1.6.3a4.12,4.12,0,0,1,.9.2h0V30.1a15.26,15.26,0,0,0-.3-3,6.29,6.29,0,0,0-3.6-4.6,8.78,8.78,0,0,0-3.9-.7h0a29,29,0,0,0-5.4.4,19.63,19.63,0,0,0-3.4.9h0L376,18a15.09,15.09,0,0,1,4-1A21.23,21.23,0,0,1,385.9,16.3Zm38.6,36.3h0a19.15,19.15,0,0,1-7.4-1.3,13.68,13.68,0,0,1-5.3-3.7,15.92,15.92,0,0,1-3.2-5.7,23.8,23.8,0,0,1-1.1-7.3h0a21.09,21.09,0,0,1,1.2-7.3,19.45,19.45,0,0,1,3.3-5.8,15.21,15.21,0,0,1,5.2-3.8,17.36,17.36,0,0,1,6.9-1.4h0a24.87,24.87,0,0,1,4.7.4,33.05,33.05,0,0,1,4.5,1.2h0l-1.4,5.3a19.84,19.84,0,0,0-3.2-1.1,16.11,16.11,0,0,0-3.9-.4h0c-3.5,0-6.1,1.1-8,3.3s-2.8,5.3-2.8,9.5h0a19.83,19.83,0,0,0,.6,5.1,10.05,10.05,0,0,0,2,4,9.19,9.19,0,0,0,3.5,2.6,13.45,13.45,0,0,0,5.2.9h0a21.38,21.38,0,0,0,4.5-.5,18.9,18.9,0,0,0,3.1-1h0l.9,5.2a11.64,11.64,0,0,1-1.5.6,14.19,14.19,0,0,1-2.2.5,21.87,21.87,0,0,1-2.7.4A10.21,10.21,0,0,1,424.5,52.6Zm14-18h0a21.65,21.65,0,0,1,1.3-8,17.78,17.78,0,0,1,3.5-5.7,14.73,14.73,0,0,1,5.1-3.4,15.07,15.07,0,0,1,5.9-1.1h0c4.7,0,8.2,1.5,10.7,4.4s3.7,7.3,3.7,13.3h0v1a4.87,4.87,0,0,1-.1,1.2H444.9c.3,3.6,1.3,6.3,3.1,8.2s4.7,2.8,8.5,2.8h0a21.47,21.47,0,0,0,5.5-.6,19.41,19.41,0,0,0,3.4-1.1h0l.9,5.2a17.8,17.8,0,0,1-4,1.2,30.57,30.57,0,0,1-6.4.7h0a20.5,20.5,0,0,1-7.8-1.4,14.25,14.25,0,0,1-5.4-3.8,15.92,15.92,0,0,1-3.2-5.7A27.22,27.22,0,0,1,438.5,34.6Zm6.6-3.4h17.2a10.91,10.91,0,0,0-2.1-6.9,7.15,7.15,0,0,0-6-2.7h0a9.21,9.21,0,0,0-3.8.8,10.11,10.11,0,0,0-2.8,2.2,8.72,8.72,0,0,0-1.8,3.1c-.2,1.1-.5,2.3-.7,3.5Zm40.7,16.2h0a11.66,11.66,0,0,0,5.6-1,3.39,3.39,0,0,0,1.8-3.2h0a4.28,4.28,0,0,0-1.8-3.6,28.45,28.45,0,0,0-5.9-3h0c-1.3-.5-2.6-1.1-3.8-1.6a14.49,14.49,0,0,1-3.2-2,9,9,0,0,1-2.1-2.7,9.35,9.35,0,0,1-.8-3.9h0a8.7,8.7,0,0,1,3.4-7.3c2.3-1.8,5.3-2.7,9.2-2.7h0a26.42,26.42,0,0,1,2.9.2,19.34,19.34,0,0,1,2.7.4c.8.2,1.6.3,2.3.5a13.08,13.08,0,0,1,1.5.5h0l-1.1,5.3a15.1,15.1,0,0,0-3.1-1.1,18.78,18.78,0,0,0-5.1-.6h0a9.33,9.33,0,0,0-4.5,1,3.41,3.41,0,0,0-1.9,3.2h0a4.21,4.21,0,0,0,.4,2,4.84,4.84,0,0,0,1.3,1.6,9.13,9.13,0,0,0,2.2,1.3c.9.4,2,.8,3.2,1.3h0c1.6.6,3.1,1.2,4.4,1.8a13.35,13.35,0,0,1,3.3,2.1,8.64,8.64,0,0,1,2.1,2.9,10.24,10.24,0,0,1,.7,4.2h0a8.37,8.37,0,0,1-3.6,7.3c-2.4,1.6-5.8,2.5-10.2,2.5h0a23,23,0,0,1-7.2-.8,25.9,25.9,0,0,1-3.5-1.2h0l1.1-5.3c.7.3,1.8.7,3.4,1.2A26.13,26.13,0,0,0,485.8,47.4Z"/></g></g></svg>