<svg xmlns="http://www.w3.org/2000/svg" version="1.1" xmlns:xlink="http://www.w3.org/1999/xlink" xmlns:svgjs="http://svgjs.dev/svgjs" width="765" height="625" viewBox="0 0 401.7240051269531 300" class="svg-animations " style="background: rgb(73, 59, 247);"><svg viewBox="0 0 139.99041748046875 138.99172973632812" width="70" height="70" fill="#ffffff" x="33.47700042724608" y="115"><svg width="140" height="134" viewBox="0 0 140 134" xmlns="http://www.w3.org/2000/svg">
	<g clip-path="url(#clip0)">
	<path d="M130.694 68.26C133.686 63.1805 135.837 57.8465 137.187 52.4106C141.693 64.5045 140.917 78.4443 133.838 90.4236C121.4 111.48 94.2584 118.469 73.2018 106.031C67.9185 102.912 63.5137 98.8638 60.0891 94.2045C86.2635 103.281 116.066 93.0206 130.694 68.26Z"></path>
	<path d="M101.439 15.0598C98.5359 9.92943 94.9841 5.41015 90.9611 1.51465C103.679 3.65335 115.366 11.3043 122.202 23.4109C134.22 44.7088 126.696 71.71 105.398 83.7274C100.051 86.7445 94.3475 88.5268 88.606 89.1761C109.561 71.048 115.57 40.1132 101.439 15.0598Z"></path>
	<path d="M40.7384 13.8123C34.8441 13.7487 29.1534 14.5634 23.7683 16.1165C31.9796 6.16135 44.443 -0.140189 58.3577 -0.000154647C82.8135 0.241723 102.432 20.2539 102.19 44.7089C102.126 50.845 100.815 56.6882 98.5105 61.9713C93.2909 34.7665 69.5099 14.0924 40.7384 13.8123Z"></path>
	<path d="M9.30624 65.7395C6.31452 70.8189 4.16302 76.1529 2.81356 81.5888C-1.69312 69.4949 -0.916544 55.5552 6.16175 43.5759C18.587 22.5326 45.7289 15.5436 66.7856 27.9812C72.0688 31.1001 76.4737 35.1484 79.8982 39.8077C53.7365 30.7182 23.9339 40.9789 9.30624 65.7395Z"></path>
	<path d="M38.5614 118.94C41.4513 124.07 45.0031 128.59 49.0388 132.485C36.3208 130.346 24.6339 122.695 17.7975 110.589C5.77971 89.291 13.3036 62.2898 34.6021 50.2723C39.949 47.2552 45.6524 45.473 51.394 44.8237C30.4392 62.9518 24.4303 93.8866 38.5614 118.94Z"></path>
	<path d="M99.2616 120.187C105.156 120.251 110.847 119.436 116.232 117.883C108.02 127.838 95.5442 134.127 81.6423 133.987C57.1865 133.745 37.5684 113.733 37.8103 89.278C37.874 83.142 39.1852 77.2987 41.4895 72.0156C46.7091 99.2332 70.5029 119.907 99.2616 120.187Z"></path>
	</g>
	</svg></svg><svg fill="#ffffff" x="113.47700042724608" y="133.375"><path d="M20.96 26L17.57 26Q17.02 24.56 16.54 23.17Q16.06 21.78 15.55 20.34L15.55 20.34L5.50 20.34L3.49 26L0.26 26Q1.54 22.48 2.66 19.49Q3.78 16.50 4.85 13.81Q5.92 11.12 6.98 8.67Q8.03 6.22 9.18 3.82L9.18 3.82L12.03 3.82Q13.18 6.22 14.24 8.67Q15.30 11.12 16.37 13.81Q17.44 16.50 18.56 19.49Q19.68 22.48 20.96 26L20.96 26ZM6.40 17.78L14.66 17.78Q13.63 14.99 12.62 12.38Q11.62 9.78 10.53 7.38L10.53 7.38Q9.41 9.78 8.40 12.38Q7.39 14.99 6.40 17.78L6.40 17.78ZM39.36 26L36.77 26Q35.87 23.70 34.86 20.74Q33.86 17.78 33.02 14.58L33.02 14.58Q32.19 17.78 31.20 20.74Q30.21 23.70 29.31 26L29.31 26L26.72 26Q25.25 22.70 23.84 18.48Q22.43 14.26 21.18 9.36L21.18 9.36L24.38 9.36Q24.70 10.86 25.15 12.62Q25.60 14.38 26.10 16.14Q26.59 17.90 27.14 19.54Q27.68 21.17 28.16 22.38L28.16 22.38Q28.70 20.88 29.23 19.20Q29.76 17.52 30.24 15.81Q30.72 14.10 31.15 12.45Q31.58 10.80 31.90 9.36L31.90 9.36L34.37 9.36Q34.66 10.80 35.07 12.45Q35.49 14.10 35.97 15.81Q36.45 17.52 36.98 19.20Q37.50 20.88 38.05 22.38L38.05 22.38Q38.53 21.17 39.06 19.54Q39.58 17.90 40.10 16.14Q40.61 14.38 41.06 12.62Q41.50 10.86 41.82 9.36L41.82 9.36L44.90 9.36Q43.65 14.26 42.24 18.48Q40.83 22.70 39.36 26L39.36 26ZM47.10 17.71L47.10 17.71Q47.10 15.50 47.74 13.86Q48.38 12.21 49.44 11.12Q50.50 10.03 51.87 9.49Q53.25 8.94 54.69 8.94L54.69 8.94Q58.05 8.94 59.84 11.04Q61.63 13.14 61.63 17.42L61.63 17.42Q61.63 17.62 61.63 17.92Q61.63 18.22 61.60 18.48L61.60 18.48L50.21 18.48Q50.40 21.07 51.71 22.42Q53.02 23.76 55.81 23.76L55.81 23.76Q57.38 23.76 58.45 23.49Q59.52 23.22 60.06 22.96L60.06 22.96L60.48 25.46Q59.94 25.74 58.58 26.06Q57.22 26.38 55.49 26.38L55.49 26.38Q53.31 26.38 51.73 25.73Q50.14 25.07 49.12 23.92Q48.10 22.77 47.60 21.18Q47.10 19.60 47.10 17.71ZM50.27 16.08L58.53 16.08Q58.56 14.06 57.52 12.77Q56.48 11.47 54.66 11.47L54.66 11.47Q53.63 11.47 52.85 11.87Q52.06 12.27 51.52 12.91Q50.98 13.55 50.67 14.38Q50.37 15.22 50.27 16.08L50.27 16.08ZM69.79 23.86L69.79 23.86Q71.62 23.86 72.50 23.38Q73.38 22.90 73.38 21.84L73.38 21.84Q73.38 20.75 72.51 20.11Q71.65 19.47 69.66 18.67L69.66 18.67Q68.70 18.29 67.82 17.89Q66.94 17.49 66.30 16.94Q65.66 16.40 65.28 15.63Q64.90 14.86 64.90 13.74L64.90 13.74Q64.90 11.54 66.53 10.24Q68.16 8.94 70.98 8.94L70.98 8.94Q71.68 8.94 72.38 9.02Q73.09 9.10 73.70 9.22Q74.30 9.33 74.77 9.46Q75.23 9.58 75.49 9.68L75.49 9.68L74.94 12.24Q74.46 11.98 73.44 11.71Q72.42 11.44 70.98 11.44L70.98 11.44Q69.73 11.44 68.80 11.94Q67.87 12.43 67.87 13.49L67.87 13.49Q67.87 14.03 68.08 14.45Q68.29 14.86 68.72 15.20Q69.15 15.54 69.79 15.82Q70.43 16.11 71.33 16.43L71.33 16.43Q72.51 16.88 73.44 17.31Q74.37 17.74 75.02 18.32Q75.68 18.90 76.03 19.71Q76.38 20.53 76.38 21.71L76.38 21.71Q76.38 24.02 74.67 25.20Q72.96 26.38 69.79 26.38L69.79 26.38Q67.58 26.38 66.34 26.02Q65.09 25.65 64.64 25.46L64.64 25.46L65.18 22.90Q65.70 23.09 66.82 23.47Q67.94 23.86 69.79 23.86ZM94.88 17.68L94.88 17.68Q94.88 19.66 94.30 21.26Q93.73 22.86 92.69 24.02Q91.65 25.17 90.21 25.79Q88.77 26.42 87.07 26.42L87.07 26.42Q85.38 26.42 83.94 25.79Q82.50 25.17 81.46 24.02Q80.42 22.86 79.84 21.26Q79.26 19.66 79.26 17.68L79.26 17.68Q79.26 15.73 79.84 14.11Q80.42 12.50 81.46 11.34Q82.50 10.19 83.94 9.57Q85.38 8.94 87.07 8.94L87.07 8.94Q88.77 8.94 90.21 9.57Q91.65 10.19 92.69 11.34Q93.73 12.50 94.30 14.11Q94.88 15.73 94.88 17.68ZM91.78 17.68L91.78 17.68Q91.78 14.86 90.51 13.22Q89.25 11.57 87.07 11.57L87.07 11.57Q84.90 11.57 83.63 13.22Q82.37 14.86 82.37 17.68L82.37 17.68Q82.37 20.50 83.63 22.14Q84.90 23.79 87.07 23.79L87.07 23.79Q89.25 23.79 90.51 22.14Q91.78 20.50 91.78 17.68ZM99.07 26L99.07 9.84Q100.10 9.58 101.78 9.30Q103.46 9.01 105.66 9.01L105.66 9.01Q107.26 9.01 108.35 9.44Q109.44 9.87 110.18 10.70L110.18 10.70Q110.40 10.54 110.88 10.26Q111.36 9.97 112.06 9.70Q112.77 9.42 113.63 9.22Q114.50 9.01 115.49 9.01L115.49 9.01Q117.41 9.01 118.62 9.57Q119.84 10.13 120.53 11.15Q121.22 12.18 121.46 13.58Q121.70 14.99 121.70 16.66L121.70 16.66L121.70 26L118.72 26L118.72 17.30Q118.72 15.82 118.58 14.77Q118.43 13.71 118.03 13.01Q117.63 12.30 116.94 11.97Q116.26 11.63 115.17 11.63L115.17 11.63Q113.66 11.63 112.69 12.03Q111.71 12.43 111.36 12.75L111.36 12.75Q111.62 13.58 111.74 14.58Q111.87 15.57 111.87 16.66L111.87 16.66L111.87 26L108.90 26L108.90 17.30Q108.90 15.82 108.74 14.77Q108.58 13.71 108.18 13.01Q107.78 12.30 107.09 11.97Q106.40 11.63 105.34 11.63L105.34 11.63Q104.90 11.63 104.38 11.66Q103.87 11.70 103.41 11.74Q102.94 11.79 102.56 11.86Q102.18 11.92 102.05 11.95L102.05 11.95L102.05 26L99.07 26ZM125.70 17.71L125.70 17.71Q125.70 15.50 126.34 13.86Q126.98 12.21 128.03 11.12Q129.09 10.03 130.46 9.49Q131.84 8.94 133.28 8.94L133.28 8.94Q136.64 8.94 138.43 11.04Q140.22 13.14 140.22 17.42L140.22 17.42Q140.22 17.62 140.22 17.92Q140.22 18.22 140.19 18.48L140.19 18.48L128.80 18.48Q128.99 21.07 130.30 22.42Q131.62 23.76 134.40 23.76L134.40 23.76Q135.97 23.76 137.04 23.49Q138.11 23.22 138.66 22.96L138.66 22.96L139.07 25.46Q138.53 25.74 137.17 26.06Q135.81 26.38 134.08 26.38L134.08 26.38Q131.90 26.38 130.32 25.73Q128.74 25.07 127.71 23.92Q126.69 22.77 126.19 21.18Q125.70 19.60 125.70 17.71ZM128.86 16.08L137.12 16.08Q137.15 14.06 136.11 12.77Q135.07 11.47 133.25 11.47L133.25 11.47Q132.22 11.47 131.44 11.87Q130.66 12.27 130.11 12.91Q129.57 13.55 129.26 14.38Q128.96 15.22 128.86 16.08L128.86 16.08ZM157.98 3.60L157.98 3.60Q162.66 3.60 165.17 5.38Q167.68 7.15 167.68 10.67L167.68 10.67Q167.68 12.59 166.99 13.95Q166.30 15.31 165.01 16.16Q163.71 17.01 161.86 17.39Q160 17.78 157.66 17.78L157.66 17.78L155.20 17.78L155.20 26L152.10 26L152.10 4.14Q153.41 3.82 155.02 3.71Q156.64 3.60 157.98 3.60ZM158.24 6.32L158.24 6.32Q156.26 6.32 155.20 6.42L155.20 6.42L155.20 15.12L157.54 15.12Q159.14 15.12 160.42 14.91Q161.70 14.70 162.58 14.21Q163.46 13.71 163.94 12.85Q164.42 11.98 164.42 10.64L164.42 10.64Q164.42 9.36 163.92 8.53Q163.42 7.70 162.58 7.20Q161.73 6.70 160.61 6.51Q159.49 6.32 158.24 6.32ZM176.77 23.82L176.35 26.32Q173.60 26.26 172.45 25.14Q171.30 24.02 171.30 21.65L171.30 21.65L171.30 1.68L174.27 1.17L174.27 21.17Q174.27 21.90 174.40 22.38Q174.53 22.86 174.82 23.15Q175.10 23.44 175.58 23.58Q176.06 23.73 176.77 23.82L176.77 23.82ZM185.73 23.86L185.73 23.86Q186.78 23.86 187.60 23.81Q188.42 23.76 188.96 23.63L188.96 23.63L188.96 18.67Q188.64 18.51 187.92 18.40Q187.20 18.29 186.18 18.29L186.18 18.29Q185.50 18.29 184.75 18.38Q184.00 18.48 183.38 18.78Q182.75 19.09 182.34 19.62Q181.92 20.14 181.92 21.01L181.92 21.01Q181.92 22.61 182.94 23.23Q183.97 23.86 185.73 23.86ZM185.47 8.94L185.47 8.94Q187.26 8.94 188.50 9.41Q189.73 9.87 190.48 10.72Q191.23 11.57 191.55 12.74Q191.87 13.90 191.87 15.31L191.87 15.31L191.87 25.71Q191.49 25.78 190.80 25.89Q190.11 26 189.25 26.10Q188.38 26.19 187.38 26.27Q186.37 26.35 185.38 26.35L185.38 26.35Q183.97 26.35 182.78 26.06Q181.60 25.78 180.74 25.15Q179.87 24.53 179.39 23.50Q178.91 22.48 178.91 21.04L178.91 21.04Q178.91 19.66 179.47 18.67Q180.03 17.68 180.99 17.07Q181.95 16.46 183.23 16.18Q184.51 15.89 185.92 15.89L185.92 15.89Q186.37 15.89 186.85 15.94Q187.33 15.98 187.76 16.06Q188.19 16.14 188.51 16.21Q188.83 16.27 188.96 16.30L188.96 16.30L188.96 15.47Q188.96 14.74 188.80 14.02Q188.64 13.30 188.22 12.74Q187.81 12.18 187.09 11.84Q186.37 11.50 185.22 11.50L185.22 11.50Q183.74 11.50 182.64 11.71Q181.54 11.92 180.99 12.14L180.99 12.14L180.64 9.68Q181.22 9.42 182.56 9.18Q183.90 8.94 185.47 8.94ZM204.03 26.38L204.03 26.38Q202.02 26.38 200.50 25.74Q198.98 25.10 197.94 23.95Q196.90 22.80 196.38 21.22Q195.87 19.63 195.87 17.71L195.87 17.71Q195.87 15.79 196.43 14.19Q196.99 12.59 198.02 11.42Q199.04 10.26 200.53 9.60Q202.02 8.94 203.84 8.94L203.84 8.94Q204.96 8.94 206.08 9.14Q207.20 9.33 208.22 9.74L208.22 9.74L207.55 12.27Q206.88 11.95 206.00 11.76Q205.12 11.57 204.13 11.57L204.13 11.57Q201.63 11.57 200.30 13.14Q198.98 14.70 198.98 17.71L198.98 17.71Q198.98 19.06 199.28 20.18Q199.58 21.30 200.24 22.10Q200.90 22.90 201.92 23.33Q202.94 23.76 204.42 23.76L204.42 23.76Q205.60 23.76 206.56 23.54Q207.52 23.31 208.06 23.06L208.06 23.06L208.48 25.55Q208.22 25.71 207.74 25.86Q207.26 26 206.66 26.11Q206.05 26.22 205.36 26.30Q204.67 26.38 204.03 26.38ZM210.75 17.71L210.75 17.71Q210.75 15.50 211.39 13.86Q212.03 12.21 213.09 11.12Q214.14 10.03 215.52 9.49Q216.90 8.94 218.34 8.94L218.34 8.94Q221.70 8.94 223.49 11.04Q225.28 13.14 225.28 17.42L225.28 17.42Q225.28 17.62 225.28 17.92Q225.28 18.22 225.25 18.48L225.25 18.48L213.86 18.48Q214.05 21.07 215.36 22.42Q216.67 23.76 219.46 23.76L219.46 23.76Q221.02 23.76 222.10 23.49Q223.17 23.22 223.71 22.96L223.71 22.96L224.13 25.46Q223.58 25.74 222.22 26.06Q220.86 26.38 219.14 26.38L219.14 26.38Q216.96 26.38 215.38 25.73Q213.79 25.07 212.77 23.92Q211.74 22.77 211.25 21.18Q210.75 19.60 210.75 17.71ZM213.92 16.08L222.18 16.08Q222.21 14.06 221.17 12.77Q220.13 11.47 218.30 11.47L218.30 11.47Q217.28 11.47 216.50 11.87Q215.71 12.27 215.17 12.91Q214.62 13.55 214.32 14.38Q214.02 15.22 213.92 16.08L213.92 16.08ZM233.44 23.86L233.44 23.86Q235.26 23.86 236.14 23.38Q237.02 22.90 237.02 21.84L237.02 21.84Q237.02 20.75 236.16 20.11Q235.30 19.47 233.31 18.67L233.31 18.67Q232.35 18.29 231.47 17.89Q230.59 17.49 229.95 16.94Q229.31 16.40 228.93 15.63Q228.54 14.86 228.54 13.74L228.54 13.74Q228.54 11.54 230.18 10.24Q231.81 8.94 234.62 8.94L234.62 8.94Q235.33 8.94 236.03 9.02Q236.74 9.10 237.34 9.22Q237.95 9.33 238.42 9.46Q238.88 9.58 239.14 9.68L239.14 9.68L238.59 12.24Q238.11 11.98 237.09 11.71Q236.06 11.44 234.62 11.44L234.62 11.44Q233.38 11.44 232.45 11.94Q231.52 12.43 231.52 13.49L231.52 13.49Q231.52 14.03 231.73 14.45Q231.94 14.86 232.37 15.20Q232.80 15.54 233.44 15.82Q234.08 16.11 234.98 16.43L234.98 16.43Q236.16 16.88 237.09 17.31Q238.02 17.74 238.67 18.32Q239.33 18.90 239.68 19.71Q240.03 20.53 240.03 21.71L240.03 21.71Q240.03 24.02 238.32 25.20Q236.61 26.38 233.44 26.38L233.44 26.38Q231.23 26.38 229.98 26.02Q228.74 25.65 228.29 25.46L228.29 25.46L228.83 22.90Q229.34 23.09 230.46 23.47Q231.58 23.86 233.44 23.86Z"></path></svg><text fill="#292929" font-family="sans-serif" font-size="16px" x="235.86200256347655" y="166.625"><tspan dy="0" x="235.86200256347655"></tspan></text></svg>