<svg xmlns="http://www.w3.org/2000/svg" viewBox="0 0 208.48 199.51"><defs><style>.cls-1{fill:#008bff;}</style></defs><g id="Layer_2" data-name="Layer 2"><g id="Layer_1-2" data-name="Layer 1"><path class="cls-1" d="M194.59,101.7a87.18,87.18,0,0,0,9.7-23.6,65.88,65.88,0,0,1-95.2,79.8,64.84,64.84,0,0,1-19.5-17.6A88.54,88.54,0,0,0,194.59,101.7Z"/><path class="cls-1" d="M151,22.5a89.23,89.23,0,0,0-15.6-20.2,65.91,65.91,0,0,1-3.5,130.5A88.37,88.37,0,0,0,151,22.5Z"/><path class="cls-1" d="M60.69,20.6A88.33,88.33,0,0,0,35.39,24a65.86,65.86,0,0,1,116.7,42.5,65,65,0,0,1-5.5,25.7A88.33,88.33,0,0,0,60.69,20.6Z"/><path class="cls-1" d="M13.89,97.9a87.18,87.18,0,0,0-9.7,23.6,65.88,65.88,0,0,1,95.2-79.8,64.84,64.84,0,0,1,19.5,17.6A88.5,88.5,0,0,0,13.89,97.9Z"/><path class="cls-1" d="M57.49,177.1a89.23,89.23,0,0,0,15.6,20.2,65.91,65.91,0,0,1,3.5-130.5A88.37,88.37,0,0,0,57.49,177.1Z"/><path class="cls-1" d="M147.79,178.9a88.33,88.33,0,0,0,25.3-3.4A65.86,65.86,0,0,1,56.39,133a65,65,0,0,1,5.5-25.7A88.23,88.23,0,0,0,147.79,178.9Z"/></g></g></svg>